HIERARCHY
ROOT Hips
{
 OFFSET 0.000000 0.000000 0.000000
 CHANNELS 6 Xposition Yposition Zposition Yrotation Xrotation Zrotation
 JOINT Chest
 {
  OFFSET 0.000000 9.585900 0.002600
  CHANNELS 3 Yrotation Xrotation Zrotation
  JOINT Chest2
  {
   OFFSET 0.000000 9.601200 -0.005300
   CHANNELS 3 Yrotation Xrotation Zrotation
   JOINT Chest3
   {
    OFFSET 0.000000 9.561800 0.000000
    CHANNELS 3 Yrotation Xrotation Zrotation
    JOINT Chest4
    {
     OFFSET 0.000000 9.552100 0.000000
     CHANNELS 3 Yrotation Xrotation Zrotation
     JOINT Neck
     {
      OFFSET 0.000000 14.453000 0.000000
      CHANNELS 3 Yrotation Xrotation Zrotation
      JOINT Head
      {
       OFFSET 0.000000 8.936500 -0.011300
       CHANNELS 3 Yrotation Xrotation Zrotation
       End Site
       {
        OFFSET 0.000000 17.073600 -0.006000
       }
      }
     }
     JOINT RightCollar
     {
      OFFSET -2.921100 9.558500 0.000000
      CHANNELS 3 Yrotation Xrotation Zrotation
      JOINT RightShoulder
      {
       OFFSET -13.519700 0.000000 0.000000
       CHANNELS 3 Yrotation Xrotation Zrotation
       JOINT RightElbow
       {
        OFFSET 0.000000 -29.696600 0.000000
        CHANNELS 3 Yrotation Xrotation Zrotation
        JOINT RightWrist
        {
         OFFSET 0.000000 -24.004700 0.000000
         CHANNELS 3 Yrotation Xrotation Zrotation
         End Site
         {
          OFFSET 0.000000 -17.728500 0.000000
         }
        }
       }
      }
     }
     JOINT LeftCollar
     {
      OFFSET 2.921100 9.558500 0.000000
      CHANNELS 3 Yrotation Xrotation Zrotation
      JOINT LeftShoulder
      {
       OFFSET 13.519700 0.000000 0.000000
       CHANNELS 3 Yrotation Xrotation Zrotation
       JOINT LeftElbow
       {
        OFFSET 0.000000 -29.696600 0.000000
        CHANNELS 3 Yrotation Xrotation Zrotation
        JOINT LeftWrist
        {
         OFFSET 0.000000 -24.004700 0.000000
         CHANNELS 3 Yrotation Xrotation Zrotation
         End Site
         {
          OFFSET 0.000000 -17.728500 0.000000
         }
        }
       }
      }
     }
    }
   }
  }
 }
 JOINT RightHip
 {
  OFFSET -7.771700 -0.012900 -0.001300
  CHANNELS 3 Yrotation Xrotation Zrotation
  JOINT RightKnee
  {
   OFFSET 0.000000 -40.869800 0.001200
   CHANNELS 3 Yrotation Xrotation Zrotation
   JOINT RightAnkle
   {
    OFFSET 0.000000 -39.717900 0.002100
    CHANNELS 3 Yrotation Xrotation Zrotation
    JOINT RightToe
    {
     OFFSET 0.000000 -4.965400 11.033500
     CHANNELS 3 Yrotation Xrotation Zrotation
     End Site
     {
      OFFSET 0.000000 -1.423100 5.872300
     }
    }
   }
  }
 }
 JOINT LeftHip
 {
  OFFSET 7.771700 -0.012900 -0.001300
  CHANNELS 3 Yrotation Xrotation Zrotation
  JOINT LeftKnee
  {
   OFFSET 0.000000 -40.869800 0.001200
   CHANNELS 3 Yrotation Xrotation Zrotation
   JOINT LeftAnkle
   {
    OFFSET 0.000000 -39.717900 0.002100
    CHANNELS 3 Yrotation Xrotation Zrotation
    JOINT LeftToe
    {
     OFFSET 0.000000 -4.965400 11.033500
     CHANNELS 3 Yrotation Xrotation Zrotation
     End Site
     {
      OFFSET 0.000000 -1.423100 5.872300
     }
    }
   }
  }
 }
}
MOTION
Frames: 8
Frame Time: 0.008333
-28.124551 55.105273 -39.079539 -179.629207 -18.237620 -2.044235 0.819786 17.067338 0.070408 0.101290 1.802639 0.011482 0.150448 2.986726 0.031172 0.772669 15.015799 0.252848 -0.179081 11.677875 6.781971 -1.815071 -13.355065 7.462179 1.978804 2.115547 2.023454 2.703252 -9.903074 -8.465233 -110.964169 -70.609681 138.658302 -10.773108 -7.621239 0.136435 -6.399001 -1.259002 2.067589 2.534436 -11.529100 8.467855 76.576155 -55.599789 -118.337389 5.439584 -8.185103 5.306820 0.123692 -56.935290 12.520932 -103.274407 88.352401 -108.051010 -9.709264 -21.790074 13.799768 0.031734 -0.011828 0.110739 9.235989 -53.681546 -4.625647 115.108169 77.495527 112.924813 -6.938206 -23.914923 1.006065 0.039697 0.247751 0.028537
-28.125819 55.107193 -39.079465 -179.626837 -18.234014 -2.048966 0.830295 17.074363 0.071471 0.099622 1.800651 0.013308 0.154077 2.992718 0.029357 0.778247 15.022029 0.248452 -0.185377 11.669079 6.792741 -1.810509 -13.338876 7.460423 1.971702 2.104094 2.025346 2.681420 -9.894060 -8.456479 -110.950211 -70.607194 138.660768 -10.770372 -7.618435 0.134338 -6.415341 -1.266809 2.091040 2.547624 -11.533582 8.458734 76.596105 -55.600923 -118.324848 5.447262 -8.177064 5.287194 0.119657 -56.936003 12.529215 -102.950554 88.338380 -107.727333 -9.713919 -21.785745 13.787124 0.003936 -0.021455 0.091944 9.235088 -53.685338 -4.623517 115.104974 77.500190 112.924413 -6.937668 -23.910951 1.003362 0.042597 0.244556 0.030611
-28.127153 55.108856 -39.079245 -179.622406 -18.231341 -2.055208 0.847099 17.089996 0.073670 0.084322 1.785161 0.020441 0.161930 3.004976 0.026146 0.793860 15.037271 0.242501 -0.183247 11.677368 6.795627 -1.821442 -13.352685 7.472395 1.950723 2.083531 2.028273 2.676242 -9.896161 -8.445967 -110.917546 -70.618071 138.637352 -10.770284 -7.615358 0.122741 -6.428057 -1.269730 2.121893 2.542507 -11.547186 8.445292 76.614350 -55.604825 -118.324571 5.450433 -8.168893 5.319076 0.111221 -56.937092 12.542881 -102.660746 88.325897 -107.432849 -9.743539 -21.775013 13.769890 0.006766 -0.027375 0.090614 9.229015 -53.689521 -4.618978 115.104662 77.501693 112.926082 -6.938867 -23.906620 1.002397 0.044613 0.240513 0.030718
-28.128529 55.109901 -39.077675 -179.613691 -18.222100 -2.063584 0.851136 17.095197 0.079363 0.083604 1.784296 0.018072 0.157533 2.999184 0.030402 0.796091 15.040408 0.241618 -0.174183 11.691854 6.792545 -1.813478 -13.338321 7.466296 1.952173 2.081215 2.022078 2.669622 -9.896741 -8.435391 -110.828026 -70.640368 138.538112 -10.768447 -7.598486 0.126312 -6.433348 -1.271580 2.133660 2.554307 -11.542165 8.430317 76.624983 -55.612212 -118.325362 5.457350 -8.163251 5.327168 0.101829 -56.946408 12.550204 -102.480676 88.321325 -107.247362 -9.748887 -21.762356 13.739657 0.006114 -0.035929 0.097828 9.216429 -53.700090 -4.613649 115.082413 77.498950 112.905091 -6.945369 -23.904565 1.000601 0.049443 0.241260 0.031008
-28.130094 55.110826 -39.076338 -179.608014 -18.216304 -2.070614 0.851055 17.095034 0.085677 0.088586 1.791340 0.017688 0.153521 2.993816 0.030893 0.810463 15.066402 0.242508 -0.180395 11.675800 6.792435 -1.820689 -13.351116 7.471605 1.940712 2.057508 2.016213 2.663153 -9.903461 -8.425408 -110.786146 -70.653091 138.493034 -10.767441 -7.596631 0.131462 -6.451686 -1.301802 2.144266 2.579243 -11.518017 8.414578 76.642063 -55.621533 -118.349626 5.459927 -8.163178 5.326184 0.100656 -56.953207 12.549156 -102.394521 88.321903 -107.160515 -9.712163 -21.752337 13.698920 -0.010115 -0.049061 0.118891 9.206783 -53.707038 -4.608449 115.067647 77.500495 112.892659 -6.949328 -23.902415 0.997131 0.052821 0.242054 0.032910
-28.132226 55.111558 -39.075049 -179.601142 -18.212046 -2.074785 0.848454 17.096369 0.088639 0.092159 1.798207 0.017690 0.153815 2.996107 0.031070 0.805601 15.056696 0.242896 -0.171229 11.686374 6.788340 -1.818433 -13.352791 7.466846 1.944851 2.061523 2.011561 2.665144 -9.895848 -8.419916 -110.787534 -70.662716 138.486910 -10.766319 -7.599633 0.137939 -6.449491 -1.297668 2.151684 2.584066 -11.518951 8.404890 76.640319 -55.618418 -118.339653 5.459472 -8.168135 5.328527 0.092978 -56.958403 12.555823 -102.295658 88.317116 -107.056610 -9.724205 -21.738980 13.660571 0.020184 -0.051336 0.124001 9.204952 -53.710784 -4.609603 115.050384 77.501731 112.874073 -6.949889 -23.902913 0.998417 0.053220 0.244354 0.033388
-28.133696 55.112041 -39.073530 -179.596233 -18.206863 -2.081708 0.860207 17.110578 0.094136 0.085363 1.792049 0.018717 0.154455 2.998843 0.031957 0.808779 15.062837 0.247988 -0.168395 11.678188 6.783903 -1.804327 -13.351629 7.452072 1.938612 2.050103 2.006978 2.671019 -9.889705 -8.411985 -110.800482 -70.671535 138.493626 -10.765118 -7.602416 0.142421 -6.449616 -1.293633 2.171505 2.586564 -11.535983 8.384545 76.636534 -55.615680 -118.329673 5.455762 -8.172234 5.332126 0.094276 -56.966324 12.561990 -102.188340 88.319403 -106.937688 -9.749755 -21.724671 13.626767 0.004804 -0.054341 0.121936 9.199100 -53.720999 -4.608449 115.057494 77.499535 112.884072 -6.947671 -23.896040 0.998634 0.050229 0.236715 0.029079
-28.135779 55.112426 -39.072423 -179.593263 -18.203717 -2.082979 0.859821 17.110143 0.094976 0.092770 1.801624 0.018534 0.154775 3.001477 0.032441 0.810795 15.068764 0.250726 -0.172985 11.663956 6.782013 -1.797979 -13.354026 7.446356 1.936658 2.036936 2.000253 2.670103 -9.882595 -8.397787 -110.817412 -70.680019 138.503044 -10.764114 -7.607669 0.145877 -6.456447 -1.305893 2.183558 2.606922 -11.514016 8.380471 76.656169 -55.608386 -118.361024 5.448810 -8.172239 5.331894 0.114213 -56.971739 12.547526 -102.244045 88.327298 -106.984685 -9.755681 -21.719512 13.611364 0.035461 -0.051682 0.110749 9.199962 -53.725447 -4.613057 115.052384 77.498610 112.879210 -6.945902 -23.893690 0.995855 0.050093 0.234889 0.030849
